<?xml version="1.0" standalone="no"?><!DOCTYPE svg PUBLIC "-//W3C//DTD SVG 1.1//EN" "http://www.w3.org/Graphics/SVG/1.1/DTD/svg11.dtd"><svg t="1551428393027" class="icon" style="" viewBox="0 0 1024 1024" version="1.1" xmlns="http://www.w3.org/2000/svg" p-id="2088" xmlns:xlink="http://www.w3.org/1999/xlink" width="64" height="64"><defs><style type="text/css"></style></defs><path d="M950.778476 541.343676 950.778476 926.493672c0 53.62848-43.877848 97.506328-97.506328 97.506328L170.727852 1024c-53.62848 0-97.506328-43.877848-97.506328-97.506328L73.221524 541.343676c-26.81424 0-48.753164-21.938924-48.753164-48.753164l0-168.198416c0-26.81424 21.938924-48.753164 48.753164-48.753164l121.88291 0 36.564873 0L156.101903 219.572794C107.348739 183.007921 97.598106 112.315833 134.162979 63.562669l14.625949-19.501266c36.564873-48.753164 107.256961-58.503797 158.447783-21.938924l219.389238 163.323099c9.750633 7.312975 17.063607 17.063607 24.376582 26.81424l190.13734-143.821834c48.753164-36.564873 119.445252-26.81424 158.447783 21.938924l14.625949 19.501266c36.564873 48.753164 26.81424 119.445252-21.938924 156.010125l-9.750633 7.312975L950.778476 273.201274c26.81424 0 48.753164 21.938924 48.753164 48.753164l0 168.198416C999.53164 519.404752 977.592716 541.343676 950.778476 541.343676zM121.974688 926.493672c0 26.81424 21.938924 48.753164 48.753164 48.753164l682.544296 0c26.81424 0 48.753164-21.938924 48.753164-48.753164L902.025312 541.343676 121.974688 541.343676 121.974688 926.493672zM494.936393 226.885768l-219.389238-163.323099C251.170573 41.623745 209.730383 46.499061 190.229117 73.313302L175.603168 92.814567C153.664244 119.628808 158.539561 158.631339 187.791459 180.570263l126.758226 95.06867 175.51139 0c4.875316-12.188291 12.188291-21.938924 21.938924-31.689557C507.124684 236.636401 502.249367 231.761085 494.936393 226.885768zM872.773414 141.567731 858.147465 122.066466c-21.938924-26.81424-60.941455-31.689557-87.755695-12.188291l-219.389238 163.323099c0 0 0 0 0 0l246.203478 0 63.379113-46.315506C889.837021 207.384503 894.712338 168.381972 872.773414 141.567731zM950.778476 348.768678c0-12.188291-9.750633-24.376582-24.376582-24.376582L97.598106 324.392096c-14.625949 0-24.376582 9.750633-24.376582 24.376582l0 121.88291c0 12.188291 9.750633 24.376582 24.376582 24.376582l828.803788 0c14.625949 0 24.376582-9.750633 24.376582-24.376582L950.778476 348.768678z" p-id="2089"></path></svg>