<?xml version="1.0" standalone="no"?><!DOCTYPE svg PUBLIC "-//W3C//DTD SVG 1.1//EN" "http://www.w3.org/Graphics/SVG/1.1/DTD/svg11.dtd"><svg t="1551428345040" class="icon" style="" viewBox="0 0 1024 1024" version="1.1" xmlns="http://www.w3.org/2000/svg" p-id="1967" xmlns:xlink="http://www.w3.org/1999/xlink" width="64" height="64"><defs><style type="text/css"></style></defs><path d="M706.977994 121.958004 511.913993 121.958004l0-12.213002c0-60.892995-48.679993-109.745003-109.745003-109.745003l-24.426004 0c-60.892995 0-109.745003 48.679993-109.745003 109.745003l0 12.213002L146.211994 121.958004c-26.834201 0-48.679993 22.017806-48.679993 48.679993l0 804.509995c0 26.834201 22.017806 48.679993 48.679993 48.679993l731.403998 0c26.834201 0 48.679993-22.017806 48.679993-48.679993L926.295985 317.022006 706.977994 121.958004zM731.403998 214.501596l119.377793 102.348396-119.377793 0L731.403998 214.501596zM317.022006 109.745003c0-34.058794 26.834201-60.892995 60.892995-60.892995l24.426004 0c34.058794 0 60.892995 26.834201 60.892995 60.892995l0 12.213002-146.211994 0L317.022006 109.745003 317.022006 109.745003zM853.189988 975.320007c-17.029397 0-667.930791 0-682.724005 0-14.621199 0-24.426004-4.816395-24.426004-24.426004 0-19.437594 0-746.025197 0-755.830002 0-9.804804 9.804804-24.426004 24.426004-24.426004 4.816395 0 43.863598 0 97.532001 0l0 304.809004c0 60.892995 48.679993 109.745003 109.745003 109.745003l24.426004 0c60.892995 0 109.745003-48.679993 109.745003-109.745003l0-158.424996c0-14.621199-9.804804-24.426004-24.426004-24.426004s-24.426004 9.804804-24.426004 24.426004l0 158.424996c0 34.058794-26.834201 60.892995-60.892995 60.892995l-24.426004 0c-34.058794 0-60.892995-26.834201-60.892995-60.892995L316.849992 170.637998l146.211994 0 48.679993 0c95.123803 0 170.637998 0 170.637998 0l0 195.064001 195.064001 0c0.172014 112.1532 0.172014 570.570805 0.172014 585.192004C877.615992 967.9234 870.219385 975.320007 853.189988 975.320007z" p-id="1968"></path></svg>