<?xml version="1.0" standalone="no"?><!DOCTYPE svg PUBLIC "-//W3C//DTD SVG 1.1//EN" "http://www.w3.org/Graphics/SVG/1.1/DTD/svg11.dtd"><svg t="1552561859900" class="icon" style="" viewBox="0 0 3424 1024" version="1.1" xmlns="http://www.w3.org/2000/svg" p-id="10155" xmlns:xlink="http://www.w3.org/1999/xlink" width="668.75" height="200"><defs><style type="text/css"></style></defs><path d="M2333.53218196 512.08238844l390.9797175-390.98450251c19.76603625-19.76125219 19.76603625-52.20822283 0-71.9682778l-2.140005-2.14479c-19.76005594-19.76125219-52.20702656-19.76125219-71.9730628 0L2259.41911415 438.46454845 1868.43341632 46.82093844c-19.76005594-19.76125219-52.20702656-19.76125219-71.96827871 0l-2.14478908 2.14000501c-20.25528281 19.76484001-20.25528281 52.20822283 0 71.97306374L2185.30604635 512.08238844 1794.32034853 903.0633022c-19.76005594 19.76484001-19.76005594 52.20702656 0 71.9730628l2.14478908 2.14000499c19.76125219 19.76484001 52.20822283 19.76484001 71.96827871 0l390.98569782-390.98091376 390.9797175 390.98091376c19.76603625 19.76484001 52.21300781 19.76484001 71.97306283 0l2.14000499-2.14000499c19.76603625-19.76603625 19.76603625-52.20822283 0-71.9730628L2333.53218196 512.08238844z m0 0" fill="#ffffff" p-id="10156"></path></svg>