<?xml version="1.0" standalone="no"?><!DOCTYPE svg PUBLIC "-//W3C//DTD SVG 1.1//EN" "http://www.w3.org/Graphics/SVG/1.1/DTD/svg11.dtd"><svg t="1551668000440" class="icon" style="" viewBox="0 0 1024 1024" version="1.1" xmlns="http://www.w3.org/2000/svg" p-id="1661" xmlns:xlink="http://www.w3.org/1999/xlink" width="64" height="64"><defs><style type="text/css"></style></defs><path d="M911.182027 898.238738 755.794004 729.695091c-0.11768-0.12382-0.25378-0.208754-0.370437-0.330528 73.567529-70.137407 119.567189-168.960133 119.567189-278.395568 0-212.18254-172.626639-384.805086-384.804063-384.805086-212.18561 0-384.806109 172.621523-384.806109 384.805086 0 212.18254 172.621523 384.804063 384.806109 384.804063 75.575256 0 146.07082-21.988804 205.589378-59.774385 1.055029 1.937119 2.270716 3.800559 3.836375 5.496178l155.39007 168.539554c10.211573 11.081383 27.482935 11.784394 38.561247 1.571798l16.054651-14.806217C920.702867 926.585343 921.395646 909.319098 911.182027 898.238738zM154.504398 450.968995c0-185.094602 150.585647-335.681272 335.681272-335.681272 185.090509 0 335.681272 150.58667 335.681272 335.681272 0 185.094602-150.590763 335.681272-335.681272 335.681272C305.090045 786.65129 154.504398 636.063597 154.504398 450.968995z" p-id="1662" fill="#409fff"></path></svg>